# xmcd CD database file
#
# Track frame offsets:
#	150
#	12150
#	25350
#	38250
#	50660
#	62135
#	74735
#	86810
#	98885
#	110027
#	123377
#	135720
#	148212
#	161262
#	174612
#	184287
#	198087
#	208662
#	222087
#	234131
#	247973
#	261441
#	272660
#	286160
#	296252
#
# Disc length: 4113 seconds
#
# Revision: 0
# Processed by: cddbd v1.5.2PL0 Copyright (c) Steve Scherf et al.
# Submitted via: CDex 1.70beta2
#
DISCID=77100f19
DTITLE=Sons of the Pioneers - Sons of the Pioneers (Disk2)
DYEAR=2008
DGENRE=Country
TTITLE0=Tumbling Tumbleweeds
TTITLE1=At The Rainbows End
TTITLE2=Baby Doll
TTITLE3=Blue Shadows On the Trail
TTITLE4=Cowboy Camp Meeting
TTITLE5=Don't Fence Me In
TTITLE6=I Wear Your Memory On My Heart
TTITLE7=My Saddle Pals And I
TTITLE8=Out In Pioneer Town
TTITLE9=Song Of The Wagonmaster
TTITLE10=Sentimental Worried and Blue
TTITLE11=Song Of The Bandit
TTITLE12=Teardrops In My HEart
TTITLE13=the devils great randson
TTITLE14=the lillies grow high
TTITLE15=there a round uo in the sky
TTITLE16=wagons west
TTITLE17=follow the stream
TTITLE18=you'll be sorry when im gone
TTITLE19=rock me to sleep
TTITLE20=rounded up in glory
TTITLE21=a calico apron and a gingham gown
TTITLE22=blue prairie
TTITLE23=chant of the wanderer
TTITLE24=echoes from the hills
EXTD=YEAR: 2008
EXTT0=
EXTT1=
EXTT2=
EXTT3=
EXTT4=
EXTT5=
EXTT6=
EXTT7=
EXTT8=
EXTT9=
EXTT10=
EXTT11=
EXTT12=
EXTT13=
EXTT14=
EXTT15=
EXTT16=
EXTT17=
EXTT18=
EXTT19=
EXTT20=
EXTT21=
EXTT22=
EXTT23=
EXTT24=
PLAYORDER=
